<svg xmlns="http://www.w3.org/2000/svg" viewBox="0 0 382.8 341.36"><defs><style>.a{fill:#d9ecf2;}</style></defs><path class="a" d="M279.63,109.18c26.65,0,53.32.32,80-.15,12.33-.22,23.57,7.62,23.19,23.07-.64,25.48-.53,51,0,76.47.3,15.43-9.21,24-24.23,23.86-53.82-.35-107.63-.07-161.45-.25-4.63,0-5.71,1.26-5.68,5.75.2,27.32.13,54.65.06,82,0,13.37-9.66,22.31-22.74,21.4-5.71-.4-10-3.52-13.8-7.34Q100.42,279.6,46,225.2,26.69,206,7.44,186.68c-10-10-9.92-22.1.13-32.15Q80.76,81.41,154,8.33c3.64-3.64,7.41-7.3,12.84-8.07,13.95-2,24.61,7.24,24.64,21.36.05,27.49.09,55-.11,82.47,0,4.24,1.2,5.21,5.29,5.18C224.31,109.09,252,109.18,279.63,109.18Z"/></svg>