<svg xmlns="http://www.w3.org/2000/svg" viewBox="0 0 381.81 373.23"><defs><style>.cls-1{fill:#00293e;}</style></defs><g id="Layer_2" data-name="Layer 2"><g id="Layer_1-2" data-name="Layer 1"><path class="cls-1" d="M115.9,220.65l21.89,20.84,75.6,72.05,2.52,2.43c12.78,12.4,12.77,23.09.06,35.4-4.9,4.76-9.67,9.65-14.5,14.47-9.79,9.77-21.18,9.91-31.2.1-12.14-11.89-24.1-23.95-36.13-36C91.83,287.73,49.68,245.31,7.07,203.35a23.19,23.19,0,0,1,.09-33.43C61.46,116.33,115.24,62.22,169.21,8.29,177.75-.24,185.6-2,194.84,2.22A22,22,0,0,1,201.21,7c5,5.08,10.09,10.16,15.19,15.19,12.22,12.05,12,23.18-.55,35.14q-48.33,46-96.58,92c-.73.69-1.54,1.28-2.6,2.16,2.18,1.5,4.2.92,6,.92q118,0,235.93-.06c7.8,0,14.42,1.88,19.29,8.35a17.19,17.19,0,0,1,3.83,10.58c0,9.32.1,18.65,0,28-.08,13.45-7.89,21.27-21.51,21.34-22.49.11-45,.06-67.48.07H115.9Z"/></g></g></svg>