<svg xmlns="http://www.w3.org/2000/svg" viewBox="0 0 492.62 437.28"><defs><style>.cls-1{fill:#00293e;}</style></defs><g id="Layer_2" data-name="Layer 2"><g id="Layer_1-2" data-name="Layer 1"><path class="cls-1" d="M314.4.06a123.6,123.6,0,0,1,66.26,16.69c59.82,34.3,96.83,85.24,108.8,153.55,6.53,37.23,3,73.6-11.27,108.69-7.46,18.34-18.35,34.57-31.61,49.35a341.17,341.17,0,0,1-69.75,59.43A307.67,307.67,0,0,1,277,429.27c-21.44,4.79-43.21,6.71-65.15,7.79-17.65.88-35.08-1.14-52.51-2.55-14.91-1.22-29.42-5.68-44.05-9a172.16,172.16,0,0,1-44.6-16.89c-32.78-18.06-59.3-42.1-67.45-80.76-5.56-26.35-4.79-52.39,9.11-76.46,7.56-13.11,18.86-22.72,31.92-30.23,18.93-10.89,39.23-18.88,59.08-27.81,41.45-18.67,68.93-48.83,83.35-92.62C201.36,56.14,230.18,23,275.54,6.25A106.32,106.32,0,0,1,314.4.06ZM206.81,382.14a251.14,251.14,0,0,0,34.88-2.08c34-4.26,65.7-15.33,95.37-32.27,22-12.55,41.64-28.18,59.51-46,10.51-10.49,20.22-21.67,27-35.07,13.52-26.64,16.83-55,12.44-84.07-7.61-50.41-33.87-88.85-77.28-115.52-13.47-8.28-28.25-12.94-44.07-12.71-24.95.37-44,12.54-59.14,31.54-11.66,14.61-17.35,32-23.22,49.42a152.71,152.71,0,0,1-33.13,55.29c-23.16,25-51.69,42.24-82.33,56.35-15.27,7-30.91,13.33-44,24.3-21.34,17.83-24.27,42.31-7.62,64.64,10.24,13.73,24.49,21.86,40,28C137.82,376.86,172,381.53,206.81,382.14Z"/><path class="cls-1" d="M196.87,354.06c-27.82-.23-55.12-3.5-81.11-14.14-9.62-3.94-18.64-9-25.62-16.9-8.93-10.15-8-22.34,2.13-31.27A70.48,70.48,0,0,1,109,281c21-10,42.2-19.87,61.71-32.76,37.07-24.5,68.28-54.29,85.2-96.53,3.58-8.94,6-18.34,9.26-27.4,4.08-11.27,10.26-21.45,19.21-29.4,17.32-15.4,36.56-17.59,57.18-6,32.14,18,53.52,44.93,63.68,80.42,7,24.42,7,48.81-.88,73.18-5.56,17.14-17.1,29.91-29.65,42-39.15,37.58-86.2,58.71-139.58,66.62A254.22,254.22,0,0,1,196.87,354.06ZM328.33,218.12a27.36,27.36,0,0,0,27.54-27.07c.09-15-12.88-27.82-27.74-27.48-15.3.35-27,12.62-26.83,28.23C301.43,206.27,313.7,218.22,328.33,218.12Z"/></g></g></svg>