<svg xmlns="http://www.w3.org/2000/svg" viewBox="0 0 437.97 328.07"><defs><style>.cls-1{fill:#ff414d;}</style></defs><g id="Layer_2" data-name="Layer 2"><g id="Layer_1-2" data-name="Layer 1"><g id="Layer_2-2" data-name="Layer 2"><g id="Layer_1-2-2" data-name="Layer 1-2"><path class="cls-1" d="M218.62,246.1H34.16c-6.39,0-6.44,0-6.23-6.57A186.26,186.26,0,0,1,58.52,142.3a189.8,189.8,0,0,1,46.63-49.52A186.79,186.79,0,0,1,186.37,58c4.3-.73,5.77-2.17,5.63-6.63C191.66,41,191.91,41,181.46,41c-12.69,0-17.31-4.71-17.31-17.59,0-3.16-.11-6.33,0-9.49.37-8,5.64-13.7,13.62-13.76,27.33-.2,54.66-.25,82,0,8.85.08,13.92,6,14.07,14.9.07,4,.16,8,0,12-.42,8.62-5.81,13.79-14.39,14A93.09,93.09,0,0,1,250,41c-3.21-.27-3.85,1.07-3.89,4-.16,11.82-.22,11.64,11.54,14a186.62,186.62,0,0,1,87.08,43.28c35.1,30.84,56.46,69.29,63.5,115.62a222.37,222.37,0,0,1,2,22.32c.22,4.51-.88,6-5.64,5.92-26.66-.23-53.32-.1-80-.1Z"/><path class="cls-1" d="M218.43,328H17.56C4.9,328,0,323.2,0,310.67V289.19c.11-10,5.55-15.51,15.38-15.52H422.63c9.45,0,15.15,5.68,15.29,15.2.11,7.66,0,15.32,0,23-.06,11.18-5,16.19-16.14,16.2Q320.13,328,218.43,328Z"/></g></g></g></g></svg>