<svg xmlns="http://www.w3.org/2000/svg" viewBox="0 0 546.37 437.1"><defs><style>.cls-1{fill:#00293e;}</style></defs><g id="Layer_2" data-name="Layer 2"><g id="Layer_1-2" data-name="Layer 1"><path class="cls-1" d="M383.64,164c26.05-.71,51.91,5,76.84,15,20.44,8.23,38.92,19.71,54.36,35.55,10.74,11,20.56,22.91,23.4,38.62,2.17,12.06,2.32,24.27-3.17,35.69-1.82,3.78-1.47,6.34,1.64,8.95,12.91,10.86,12.16,33.74,2,44.27-2.29,2.37-2.52,4.62-1.37,8,4.85,14.23,2.8,28.26-2.84,41.81-9.63,23.11-26.75,37.77-51.17,43.33-7.45,1.69-15.16,1.93-23,1.87-53.15-.45-106.32-.78-159.46,0-22.86.35-41.6-7.59-56.88-23.33-9.89-10.2-15.9-23.2-17.92-37.72-1.33-9.56-1.32-18.91,2.19-28,.95-2.44-.25-3.63-1.55-5.19C215.18,329.05,215.09,309,230,296c1.54-1.35,1.88-2.29,1.06-4.16-11.37-25.75-5.57-48.67,11.88-69.44,17.78-21.17,40.38-35.55,66-45.18C332.68,168.33,357.15,163.14,383.64,164Zm-1.15,122.84H399c26,0,52,.09,77.95,0,8.85,0,15.7-3.71,19.73-11.95s2.42-15.51-2.9-22.34a95.23,95.23,0,0,0-8.19-9.4C468.51,226.37,447.88,216,425,210a165.94,165.94,0,0,0-68.26-3.12c-33.25,5.16-62.46,17.92-84.44,44.5-5.77,7-8.13,14.54-4.24,23.07s11.25,12.33,20.53,12.34Q335.52,286.84,382.49,286.81Zm-.05,109.12v0q42.24,0,84.47,0c16.85,0,28.63-10,31.29-26.25C499.87,359.52,496,355,485.7,355q-38.24,0-76.47,0-65.24,0-130.47,0c-8.91,0-13.11,5.39-12.18,14,1.65,15.32,16,27.27,31.89,27.05C326.45,395.65,354.45,395.93,382.44,395.93Z"/><path class="cls-1" d="M226.65,435.17c-3.53,1.84-6.87,1.67-10.18,1.67-44.5,0-89-.25-133.48.12-17.2.14-27.42-10.65-28.91-27.46-2-22-4.47-43.94-6.67-65.92-1.82-18.14-3.48-36.3-5.29-54.45-2.19-22-4.5-43.95-6.7-65.93-1.81-18-3.52-36-5.33-54.06-.52-5.29-1.35-10.54-1.76-15.84-.19-2.58-1.17-3.47-3.69-3.35-3.33.16-6.66.05-10,0C4.58,149.94.14,145.59,0,135.62c0-4,0-8,0-12,.06-9.64,5.06-14.56,15-14.57q36.48-.06,73,0c14,0,28,0,42,.09,2.78,0,4.19-.73,4.89-3.56,6.32-25.63,13.14-51.15,19-76.9C156.27,17.83,161.7,10,170.92,4.4A28.58,28.58,0,0,1,186.06,0q22.24,0,44.49,0c9.32,0,13.4,3.31,14.92,12.44a43.44,43.44,0,0,1-.2,16.85c-1.69,7.43-5.77,10.87-13.28,10.94-11.34.1-22.67.2-34,0-3.48-.07-5,1-5.79,4.38q-7.06,29.59-14.59,59.08c-1.09,4.27-.26,5.48,4.22,5.46,34-.15,68-.09,102-.08,11.75,0,16.34,4.56,16.37,16.24a72.65,72.65,0,0,0,.05,8.48c1.25,10.9-7.59,16.39-16.63,16.35-69.32-.25-138.64-.13-208-.13-1.33,0-2.66,0-4,0-1.66,0-2.36.64-2.17,2.43,1.38,13.37,2.69,26.76,4,40.13q2.3,22.8,4.63,45.59Q81,266.4,83.8,294.65q2.15,21.57,4.27,43.15c1.75,18,3.53,36,5.14,54.07.36,4,2.7,4.15,5.82,4.14,33-.06,66,0,99-.14,4,0,5.8,1.2,7.12,5C209.64,413.72,217.29,424.75,226.65,435.17Z"/><path class="cls-1" d="M314.09,266a13.48,13.48,0,0,1-13.76-13.38c-.18-7,6.4-13.66,13.66-13.7a14,14,0,0,1,14,13.89C327.9,260.2,321.79,266,314.09,266Z"/><path class="cls-1" d="M382.5,252.12c-8.08.06-13.44-5.3-13.45-13.41a14,14,0,0,1,13.71-13.63c7,.07,13.27,6.44,13.34,13.61C396.16,246.34,390.37,252.07,382.5,252.12Z"/><path class="cls-1" d="M464.26,252.22c.06,8.19-5.17,13.65-13.16,13.76a14,14,0,0,1-13.9-13.44c-.07-7,6.31-13.53,13.34-13.65A13.09,13.09,0,0,1,464.26,252.22Z"/></g></g></svg>