<svg xmlns="http://www.w3.org/2000/svg" viewBox="0 0 437.84 326.12"><defs><style>.cls-1{fill:#ff414d;}</style></defs><g id="Layer_2" data-name="Layer 2"><g id="Layer_1-2" data-name="Layer 1"><path class="cls-1" d="M163.73,326.08c-6.53.46-11.73-2.74-16.2-7.21Q77.13,248.61,6.86,178.24c-9.25-9.28-9.07-22.4.09-31.76,9.55-9.76,19.24-19.39,29-29,10.93-10.77,23.4-10.67,34.31.21q45.09,45,90.07,90.15c2.94,3,4.47,3.45,7.73.17q91-91.36,182.2-182.48,9-9,18.14-17.9c10.51-10.16,22.76-10.23,33.22,0q14.3,14,28.28,28.25c10.73,11,10.63,23.35-.3,34.28Q373.79,126,317.9,181.79L196.69,303c-5.52,5.52-11,11.06-16.61,16.53C175.61,323.9,170.31,326.39,163.73,326.08Z"/></g></g></svg>