<svg xmlns="http://www.w3.org/2000/svg" viewBox="0 0 437.82 436.97"><defs><style>.cls-1{fill:#002d40;}</style></defs><g id="Layer_2" data-name="Layer 2"><g id="Layer_1-2" data-name="Layer 1"><path class="cls-1" d="M244.67,300.41c-13.5,0-27,.07-40.5-.05a8.85,8.85,0,0,0-7,2.8q-14.74,14.93-29.79,29.58c-9.57,9.37-12.19,20.3-7.52,32.85,6.17,16.6,5.06,32.56-4.29,47.7-15.19,24.6-49.53,31.1-73.17,14.44C64.89,415.41,60,398.34,62.22,378.31c.4-3.51-.41-3.87-3.47-3.48-13.14,1.64-25.5-.38-36.79-7.81-26.09-17.17-29.63-57.65-6.85-78.92C31,273.28,49.35,269.58,69.64,276.63c14.43,5,26.21,2.19,36.59-9,8.7-9.41,18-18.28,27.18-27.24a9.9,9.9,0,0,0,3.29-7.83c-.15-22.15.07-44.3-.11-66.45-.25-30.49,6.33-59.16,22.68-85.15,12.59-20,27.78-37.81,46.76-52.17C232.34,8.84,262.06-.34,295,0a143.33,143.33,0,0,1,136.38,103c14.05,48.18,5.14,93.18-26.38,132.13-24.57,30.35-55.7,52.28-94.68,61.23-17.51,4-35.31,4.19-53.14,4C253,300.38,248.83,300.41,244.67,300.41Z"/></g></g></svg>