<svg xmlns="http://www.w3.org/2000/svg" viewBox="0 0 423.95 424.04"><defs><style>.cls-1{fill:#00293e;}</style></defs><g id="Layer_2" data-name="Layer 2"><g id="Layer_1-2" data-name="Layer 1"><path class="cls-1" d="M215.21,424c-113.71,2.6-210-88-215-201.72C-5.12,101.18,86.27,12.93,186.52,1.55c65.17-7.39,122.93,11.68,171,56.79,41.38,38.79,63.56,87.2,66.14,143.69,2.71,59.5-16.36,112-57.39,155.33C325.49,400.51,274.69,422.48,215.21,424Zm59.71-105.11a9.05,9.05,0,0,0,7-2.62c11.33-11.28,22.74-22.49,33.94-33.9,4.69-4.78,4.16-10.74-.61-15.47-17.28-17.11-34.44-34.35-51.81-51.36-2.92-2.85-2.58-4.42.14-7.09q25.71-25.17,51.12-50.64c6.19-6.18,6-10.89-.17-17.13-9.74-9.81-19.52-19.58-29.24-29.41-8.14-8.23-12.54-8.29-20.83.07-16,16.09-32,32.13-47.69,48.42-3.42,3.53-5.5,4.51-9.18.27-2.65-3-5.75-5.82-8.6-8.78-13.53-14-27.26-27.86-41-41.68-6-6.09-11.2-6-17.23-.07q-15.25,15.15-30.41,30.38c-7.2,7.2-7.18,11.8.06,19q25.2,25,50.42,49.94c2.3,2.26,3,3.72.29,6.36-17,16.68-33.78,33.59-50.76,50.3-6.82,6.71-7.09,11.91-.31,18.72q15,15,30,30c6.51,6.48,11.51,6.52,18,.06,16.83-16.87,33.7-33.69,50.35-50.72,3-3.07,4.55-2.8,7.4.11,16.77,17.14,33.78,34.06,50.64,51.13C268.85,317.27,271.44,319.08,274.92,318.87Z"/></g></g></svg>