<svg xmlns="http://www.w3.org/2000/svg" viewBox="0 0 273.37 382.69"><defs><style>.cls-1{fill:#002d40;}</style></defs><g id="Layer_2" data-name="Layer 2"><g id="Layer_1-2" data-name="Layer 1"><path class="cls-1" d="M112.6,123h50.69q32,0,64,0c10.14,0,14,5,11.83,15.08-1.47,6.66-2.84,13.33-4.29,20-1.74,8-5.34,10.92-13.59,10.92-39.15,0-78.3.05-117.45-.13-4.12,0-5.66,1.24-5.62,5.21.09,8.49,0,17,0,25.46,0,3.91,1.22,5.59,5.82,5.55,35.31-.25,70.64-.14,106-.13,11.28,0,15.21,4.72,12.86,15.58-1.3,6-2.71,12-4.14,18-2.17,9.11-4.9,11.28-14.18,11.28l-87.47,0h-6a104.36,104.36,0,0,0,16.51,29.84c25.51,32.52,59.28,45.92,100.12,42.55a228.75,228.75,0,0,0,25.11-3.93c7.22-1.42,11.77,1.9,13.25,9.24,2.21,11,4.5,21.95,6.78,32.92,2,9.76-.88,14.36-10.7,16.58-36.8,8.32-73.5,8.13-109.4-3.84C108.15,358.23,74.32,330,51.9,288.53A157,157,0,0,1,37.74,254c-.87-3.28-2.41-4.47-5.92-4.32-7,.31-14,.08-21,0-5.35,0-9.44-2.86-10-8.06a124.36,124.36,0,0,1,0-28.86c.6-4.91,4.52-7.64,10.09-7.81,4.83-.14,9.67-.15,14.49,0,2.66.09,3.61-.88,3.32-3.48-1.09-9.64-.36-19.28.22-28.92.17-2.8-.64-3.83-3.56-3.69-4.65.22-9.33.15-14,0-6.74-.16-10.75-3.61-11-10.3-.35-8.48-.34-17,0-25.47C.69,126.42,4.6,123.07,11.52,123c7.82-.1,15.66-.13,23.48.07,2.76.07,4-.73,5-3.39C54.44,80.9,79,50.21,114,28.16A181.64,181.64,0,0,1,193.6,1a222.17,222.17,0,0,1,62.63,2.9c8.89,1.63,12.12,6.48,9.8,15.33q-4.25,16.15-8.67,32.27c-2.63,9.64-6.39,12-16.52,10.21-11.34-2-22.72-3.52-34.26-2.79-42.58,2.72-74,22.65-93.47,60.86C112.68,120.66,111.9,121.48,112.6,123Z"/></g></g></svg>