<svg xmlns="http://www.w3.org/2000/svg" viewBox="0 0 423.79 423.91"><defs><style>.a{fill:#002d40;}</style></defs><path class="a" d="M211.18,423.91C95.29,423.77,0,329.72,0,212.81,0,93.91,95.42-1.23,214.12,0,330.79,1.24,423.91,95.92,423.79,211.26,423.66,330.09,329.08,424.29,211.18,423.91Zm-2.88-294.1v0c10.5,0,21,.45,31.48-.13,9-.51,16.29,1.77,21.94,9.05,2.95,3.79,7.2,5.16,12,5a64.7,64.7,0,0,1,7.5.05c5.38.42,9.56,2.76,11.56,8.06,3,8-.18,14.77-9.16,17.95-12.86,4.54-25.89,8.63-38.83,13a13.52,13.52,0,0,1-11.08-.87c-4.72-2.46-9.51-4.84-14.39-6.95-15.39-6.66-30.32-5.23-44.25,3.75-8.94,5.77-17.44,12.25-25.89,18.75-10,7.68-16.52,17.6-18.57,30.3-1.19,7.31-.71,14.63-.54,21.92.49,20.29,15.7,38.49,35.47,43.09,10.37,2.41,20.88,1.42,31.34,1.61,10.27.18,15,4.8,15,15,0,7.82,0,15.65.07,23.48a69.29,69.29,0,0,0,5.82,27.64c5.07,11.35,13.54,16.4,25.84,15.21,8-.77,13.28-5.48,17.53-11.86C269,352,276.07,339.52,286.6,330c7.75-7,11.34-15.29,12.2-25.23a32.38,32.38,0,0,1,7.81-18.49,143.53,143.53,0,0,0,11.61-15.64c4.88-7.74,4.87-16.31,1.27-24.39-3.07-6.9-9.89-6.78-16.41-6.7-5.2.05-9.87-1.53-13-6.13-3.73-5.52-7.59-11-11.11-16.61-1.73-2.77-3.58-5.93-2.86-9.29,2.19-10.24,14.74-15.3,23.78-9.72,4.53,2.81,9,5.71,13.32,8.85,5.65,4.11,11.33,4.12,17.28.88a55.84,55.84,0,0,1,6.69-3.37c8.64-3.32,12.1-9.5,11.68-18.7-.4-8.69,5.35-14.25,14.07-14.56a75.11,75.11,0,0,1,9.49,0c4.47.4,4.9-1.3,3.75-5.18-2.86-9.59-6.08-19-10.66-27.95-26-50.77-66.82-82.23-122.87-93.71-3.22-.66-3.73.58-3.66,3.29.12,4.66.22,9.34,0,14-.54,10.28-2.22,12.44-13.49,13.56-5.77.58-11.65.09-17.48.12-6.42,0-11.88,2-14.88,8.14-4.81,9.78-12.64,15.09-23.35,16.38a11.9,11.9,0,0,0-2.42.6c-7.86,2.67-11.61,9.44-10.15,18.26,1.21,7.26,6.4,11.37,14.62,11.4C184,129.85,196.14,129.81,208.3,129.81Z"/></svg>