<svg xmlns="http://www.w3.org/2000/svg" viewBox="0 0 492.86 436.85"><defs><style>.cls-1{fill:#00293e;}</style></defs><g id="Layer_2" data-name="Layer 2"><g id="Layer_1-2" data-name="Layer 1"><path class="cls-1" d="M356.34,84.59c0-14.65,0-28.31,0-42C356.41,32,361.44,27,372,26.94q25.25,0,50.49,0c10.43,0,15.66,5.18,15.67,15.62q.08,54.71-.05,109.42a10,10,0,0,0,3.78,8.53c15,12.95,29.79,26.15,44.65,39.27,7.9,7,8.45,14.78,1.54,22.59-5.07,5.74-10.15,11.47-15.32,17.12-6.81,7.46-14.61,7.94-22.4,1.37-3.89-3.27-7.64-6.71-12.17-10.71V236c0,57-.14,113.91.09,170.87.06,15.39-8.58,25.62-20.14,29.22a20.46,20.46,0,0,1-6.35.76q-165.21.06-330.43,0c-13,0-25-11.1-25.6-24-.54-11-.35-22-.36-33,0-49.46,0-98.93,0-149.5-3.9,3.42-7.25,6.39-10.63,9.32-3.56,3.09-7.3,6-12.31,5.9a15.18,15.18,0,0,1-10.6-4.93c-6.3-6.4-11.9-13.42-18.17-19.86-5.79-6-4.48-14.14,2.45-20.27Q31.94,177.7,57.85,155c53.46-47.15,107-94.18,160.23-141.63C226.28,6,234.49.38,245.67,0c10.24-.33,18.76,3.64,26.27,10.28Q312,45.7,352,81.07C353.22,82.13,354.5,83.1,356.34,84.59ZM246.71,273v0c11.48,0,23,0,34.46,0,12.76,0,20.31-7.29,20.38-20q.19-34.69,0-69.39c-.06-12-7.51-19.86-19.55-20q-35.2-.41-70.42,0c-11.54.13-19.36,7.36-19.53,18.47q-.54,36.18,0,72.38c.16,11.63,8,18.56,19.7,18.6S235.05,273,246.71,273Z"/></g></g></svg>