<svg xmlns="http://www.w3.org/2000/svg" viewBox="0 0 492.45 382.82"><defs><style>.cls-1{fill:#00293e;}</style></defs><g id="Layer_2" data-name="Layer 2"><g id="Layer_1-2" data-name="Layer 1"><path class="cls-1" d="M54.85,196.18c-7.44,6-14.26,11.53-21,17.09-9.5,7.8-15.79,7.31-23.88-2.05-2.29-2.64-4.59-5.29-6.65-8.11-5.16-7.05-4.23-14.37,2.47-19.87q57.72-47.37,115.46-94.73C151.87,63.36,182.58,38.3,213.06,13,227,1.36,242.34-2.93,260,2c7.38,2.08,13.56,6.22,19.39,11Q336.18,59.63,393,106.21c1,.81,1.74,2,3.86,2.16,0-7.45,0-14.85,0-22.26,0-7.82-.11-15.65,0-23.48.09-5.72,2.2-7.83,7.93-7.92,7.66-.12,15.32-.06,23,0,8,0,9.76,1.71,9.77,9.64,0,24.48.1,49-.06,73.44a9.54,9.54,0,0,0,4,8.42c14.89,12,29.61,24.29,44.37,36.49,8.12,6.71,8.81,13.91,2.12,22-2.54,3.08-5.05,6.2-7.69,9.2-5.17,5.85-12.87,6.48-18.86,1.61-7.7-6.26-15.39-12.54-23.82-19.41v5.77c0,50-.34,99.93.16,149.88.2,19-11.77,31.34-31.32,31.08-34.15-.44-68.31-.13-102.47-.15-19.08,0-30.51-11.38-30.55-30.43-.05-27-.1-54,0-80.94,0-3.8-.83-5.17-4.9-5.1q-22,.35-44-.05c-4.3-.08-5.63.93-5.59,5.46.24,26.81.14,53.62.14,80.43,0,12-4.25,21.77-15.33,27.66-4.38,2.32-9.19,3-14,3q-53.24.06-106.47,0c-17.63,0-28.61-13.54-28.5-29.82.34-50.29.13-100.59.13-150.88ZM396.31,251.3h.2c0-27.64-.15-55.29.16-82.92.05-4.53-1.25-7.15-4.66-9.91-22.86-18.51-45.53-37.25-68.26-55.92-24.58-20.19-49.2-40.33-73.66-60.67-3-2.53-4.78-2.54-7.85,0Q170.62,101,98.73,159.9a7.71,7.71,0,0,0-3.24,6.68q.12,85.17,0,170.34c0,4.09,1.28,4.91,5.07,4.89,24-.18,48-.25,72,0,4.54.05,5.45-1.27,5.42-5.56-.18-27,.19-53.95-.14-80.93-.23-18.79,13.58-30.19,30-29.86,25.49.5,51,.09,76.48.1,4.15,0,8.29,0,12.27,1.67,12.18,5.09,18,14,18,28.26.05,27,.11,54-.14,80.93,0,4.53,1.28,5.46,5.57,5.42q35.75-.34,71.48-.05c4,0,5-1.22,4.93-5.06C396.24,308.25,396.31,279.77,396.31,251.3Z"/></g></g></svg>