<svg xmlns="http://www.w3.org/2000/svg" viewBox="0 0 492.17 437.17"><defs><style>.a{fill:#d9ecf2;}</style></defs><path class="a" d="M355.85,85.09c0-14.93-.05-28.75,0-42.57.05-10.3,5.11-15.31,15.39-15.33q25.25,0,50.48,0c10.54,0,15.67,5.08,15.68,15.56q0,55-.05,109.93a9,9,0,0,0,3.38,7.68c15.24,13.18,30.29,26.58,45.4,39.91,7.53,6.64,8,14.8,1.36,22.26-5,5.59-9.9,11.24-15,16.77-7.4,8.08-15.23,8.46-23.55,1.23-3.62-3.14-7.17-6.35-11.56-10.26V236c0,57.13-.17,114.26.11,171.39.07,15.77-9,26-20.33,29a24.52,24.52,0,0,1-6.4.76q-164.92,0-329.84,0c-13.41,0-25.69-11.44-25.81-24.86-.33-37.64-.2-75.29-.24-112.93,0-22.63,0-45.25,0-68.91-3.89,3.43-7.19,6.32-10.47,9.24-9.49,8.44-16.78,8.17-25.35-1.15q-7.61-8.26-14.92-16.81c-6.07-7.06-5.49-15,1.49-21.13,33.72-29.72,67.6-59.26,101.12-89.22,10-8.92,19.89-18,30-26.74,28.74-24.85,57-50.29,85.69-75.15,14.35-12.43,32.85-12.77,47.31-.21,25.64,22.28,50.95,45,76.4,67.44C349.15,79.33,352.16,81.89,355.85,85.09ZM245.94,273.25h3l31.48,0c13.08,0,20.55-7.32,20.59-20.35q.12-34.22,0-68.43c0-12.59-7.48-20.65-19.93-20.78q-35-.37-69.94,0c-12.1.14-19.72,8-19.79,19.86-.14,23.48-.18,47,0,70.43.08,11.81,7.89,19.25,19.61,19.3S234.28,273.25,245.94,273.25Z"/></svg>