<svg xmlns="http://www.w3.org/2000/svg" viewBox="0 0 640 512"><defs><style>.a{fill:#00293e;}</style></defs><path class="a" d="M633.82,458.1,495,350.78c.52-5.57,1-11.16,1-16.87,0-111.76-99.79-153.34-146.78-311.82-7.94-28.78-49.44-30.12-58.44,0-15.52,52.34-36.87,92-58.49,125.68L45.47,3.37A16,16,0,0,0,23,6.18L3.37,31.45A16,16,0,0,0,6.18,53.9L594.54,508.63A16,16,0,0,0,617,505.82l19.64-25.27A16,16,0,0,0,633.82,458.1ZM144,333.91C144,432.35,222.72,512,320,512a174,174,0,0,0,116.4-44.7L162.72,255.78C151.31,279.28,144,304.13,144,333.91Z"/></svg>