<svg xmlns="http://www.w3.org/2000/svg" viewBox="0 0 492.23 437.21"><defs><style>.cls-1{fill:#00293e;}</style></defs><g id="Layer_2" data-name="Layer 2"><g id="Layer_1-2" data-name="Layer 1"><path class="cls-1" d="M83.21,262.43c-2.95-20.07-1-39.85,4.42-59.16,15-53,48.36-89.84,99.34-110.5,19.79-8,40.67-11.07,62.05-11.08,25,0,50,1.11,75-.49,42.43-2.73,77.17-21.06,104.4-53.65A150.13,150.13,0,0,0,441.72,8.26c3.36-5.59,7.82-9,14.7-8.13,6.32.79,9.26,5.22,11.49,10.49,20.62,48.88,27.71,99.88,22.84,152.46S469.34,264.4,438.62,307.89c-22.33,31.62-50.29,57-84.42,75.18a227.16,227.16,0,0,1-77.64,24.55c-26.15,3.48-52.16,3.31-77.63-4.65a164.83,164.83,0,0,1-81.17-55.58c-3.11-3.88-4.59-3.82-8.16-.62C85.8,368.13,65.91,392.39,52,421.35c-7.36,15.29-23.51,19-35.85,13.37C1.5,428-3.89,411.89,2.92,397.21,23.19,353.6,54.28,319,92.39,290.33,137.3,256.57,188,236.31,243,226c27.92-5.23,56.12-7,84.44-7.8,10.4-.28,16.5-8.47,13.55-17.84-1.81-5.74-6.9-9.16-13.9-9.29-16.18-.31-32.3.81-48.38,2.29a426.76,426.76,0,0,0-103.07,22.09,369.28,369.28,0,0,0-87.08,44.07c-1.37.94-2.77,1.85-4.18,2.73C84.16,262.42,83.79,262.36,83.21,262.43Z"/></g></g></svg>