<svg xmlns="http://www.w3.org/2000/svg" viewBox="0 0 383.35 82.06"><defs><style>.cls-1{fill:#00293e;}</style></defs><g id="Layer_2" data-name="Layer 2"><g id="Layer_1-2" data-name="Layer 1"><path class="cls-1" d="M191.61,82q-82.19,0-164.39,0C12.36,82,.63,70.82.64,56.05c0-9.79-1.27-19.54-.23-29.39C2.13,10.27,12.7.14,29.45.06c25.49-.11,51,0,76.45,0L353.74.08c14,0,24.53,7.22,28.23,19.41a13.16,13.16,0,0,1,.76,3.89c-.21,12,1.42,23.88.11,35.87C381.55,71,370.16,81.83,357.5,81.92c-28,.22-56,.11-83.94.12Z"/></g></g></svg>