<svg xmlns="http://www.w3.org/2000/svg" viewBox="0 0 438.16 437.26"><defs><style>.a{fill:#002d40;}</style></defs><path class="a" d="M164.06,273.21c-34.77-.15-69-4.12-102.19-15-17.67-5.78-34.56-13.31-48.24-26.35-15.74-15-18.52-33.44-3.44-50.28,13.42-15,31.17-23,49.78-29.31,23.42-8,47.55-12,72.15-14.37a359.32,359.32,0,0,1,79.64,1.51c30,3.74,59.29,10.61,86,25.7,9.05,5.11,17.22,11.38,23.5,19.8,10,13.41,9.16,29.86-2.17,42.56S293.14,248,277.49,254.26c-24.32,9.67-49.7,14.41-75.59,17.05A344.19,344.19,0,0,1,164.06,273.21Z"/><path class="a" d="M273,0c39.79-.23,77.81,3.68,114.77,15.18,13.21,4.11,25.95,9.36,37.09,17.89a41.1,41.1,0,0,1,10,11.05c5.22,8.44,3.35,18.54-4.77,26.7-9.27,9.31-20.76,14.91-32.84,19.44-27.17,10.19-55.49,14.76-84.26,17-16.43,1.31-32.88,2.31-49.36,1.71-37.66-1.36-75-5.07-110.84-17.76A122,122,0,0,1,124.32,77c-18.79-12.92-19.16-30.72-.9-44.41,14.67-11,31.63-16.66,49.05-21.27,21.92-5.8,44.3-8.47,66.84-10.36C251,0,262.61.43,273,0Z"/><path class="a" d="M328,257.16c0,15.93.59,31.08-.23,46.15-.47,8.83-7,14.84-14,19.75-17.8,12.52-38.22,18.44-59.12,23.06-34.47,7.63-69.44,10-104.61,8.88-37.5-1.23-74.64-5.36-110.07-18.83-12.81-4.87-25.12-10.8-34.16-21.67A25,25,0,0,1,.07,297.89c.06-13.32,0-26.64,0-39.76a1.36,1.36,0,0,1,2-.14c24.32,18.4,52.38,27.88,81.74,34.23a375.92,375.92,0,0,0,74.71,8.11c40.17.53,79.61-4,117.9-16.6,17-5.57,33.15-13,47.55-23.88C325,259.07,326.15,258.4,328,257.16Z"/><path class="a" d="M163.9,437.26c-37.24,0-74.05-3.61-109.9-14.18C37.81,418.31,22.3,412,9.4,400.5,3.56,395.31.36,389,.13,381.36c-.3-10.15,0-20.32-.08-30.49,0-3.24.51-4.38,3.78-2.35C28.75,364,56.43,371.36,85,376.13a473,473,0,0,0,75.45,6.26c44.81.25,89-4,131.7-18.26a150.16,150.16,0,0,0,32-15.05c1.06-.66,2.11-2.23,3.46-1.31,1.18.8.59,2.47.6,3.75,0,9.67-.15,19.33,0,29,.24,11.35-6.25,18.6-14.67,24.59-16.31,11.62-35,17.6-54.22,22a381.52,381.52,0,0,1-66,9.3C183.52,436.9,173.72,436.94,163.9,437.26Z"/><path class="a" d="M437.77,100.26c0,13.47,1,26.31-.29,38.92-1.13,11.32-10.2,17.93-19.37,23.35-19.59,11.6-41.37,17-63.38,21.58a3.33,3.33,0,0,1-4.31-2.25c-8.22-19.92-24.55-31.74-42.29-42.1-2.27-1.32-4.64-2.46-7.73-4.08C348.77,132.34,395.61,126.36,437.77,100.26Z"/><path class="a" d="M437.91,182.09c0,13.38.7,25.86-.23,38.22-.7,9.28-7.16,15.75-14.73,20.92-15.48,10.58-32.91,16.43-50.87,21-3.86,1-7.78,1.7-11.63,2.7-3.09.8-4.59.26-4.56-3.42.14-15.47.23-30.94,0-46.41-.08-4.84,3.35-4.28,5.94-4.76a270.22,270.22,0,0,0,41.34-11A151.91,151.91,0,0,0,437.91,182.09Z"/></svg>