<svg xmlns="http://www.w3.org/2000/svg" viewBox="0 0 437.23 437.58"><defs><style>.cls-1{fill:#002d40;}</style></defs><g id="Layer_2" data-name="Layer 2"><g id="Layer_1-2" data-name="Layer 1"><path class="cls-1" d="M191.5,321.9V240.49c-20.84,8.3-41.11,7.61-60.7-3-11.79-6.39-21.33-15.43-27.28-27.42-13.87-27.95-10.59-62.37,19.5-87.2-6.55-5.68-12.91-11.47-17.28-19.09-13.41-23.37-13.81-47-.35-70.2,21-36.14,68.66-44.83,103.44-16.8a36.88,36.88,0,0,1,7,8c2,3,3.43,2.82,5.53.17A62,62,0,0,1,246.18,6.09c21.09-9,41.9-8.14,61.54,3.38,23.34,13.7,34.66,34.92,33.87,61.84C341,90.64,333,107.07,318,119.58c-3.27,2.72-3.32,3.8-.1,6.73,20.07,18.29,28.24,40.78,21.82,67.54-6.26,26.13-23.19,42.51-48.67,50a62.42,62.42,0,0,1-39.29-1.36c-1.7-.61-3.43-1.16-5.18-1.75-.83,4.14-1,75.12-.16,81.57,3.32-2.53,6.41-4.95,9.55-7.3,32.75-24.55,69.76-37.5,110.41-40.73,19-1.5,38-.6,56.95-.78,9.62-.08,14.91,6.93,13.73,16.55-4.53,36.94-21.24,67.74-48,93a189.87,189.87,0,0,1-79.42,45.13,329.17,329.17,0,0,1-34.38,7.43c-11.41,2-22.74,1.54-34.1,1.66-23.48.24-47,.72-70.43-.27-11.47-.49-22.94-3.51-34.18-6.3C92.84,419.83,56.47,397.08,29,361.21,12.48,339.65,3.11,314.85.08,287.79c-.81-7.24,4.81-14.16,12.33-14.19,28.94-.08,57.94-1.68,86.6,4.53,32.69,7.07,62.38,20.26,88.39,41.42.9.73,1.82,1.46,2.76,2.13C190.39,321.85,190.76,321.79,191.5,321.9ZM259.75,123c0-22.51-18.74-41.12-41.12-40.92A41,41,0,1,0,259.75,123Z"/></g></g></svg>