<svg xmlns="http://www.w3.org/2000/svg" viewBox="0 0 327.93 387.1"><defs><style>.a{fill:#002d40;}</style></defs><path class="a" d="M132.3.31c21,0,42-.42,63,.12,20,.51,39.19,4.78,57,14.32,23.15,12.39,35.39,32.05,36.46,57.87,1.35,32.74-7.73,63-26.73,89.69C245.87,185,222.58,197,195.87,202.89c-17.67,3.87-35.61,4.42-53.64,3.65-10.13-.43-20.29-.6-30.31,1.57-8.54,1.86-13.8,7.28-15.78,15.55-3.67,15.35-5.55,31-8.09,46.59-3.82,23.28-7.42,46.6-11,69.92-.45,2.91-1.7,3.94-4.57,3.93-20.65-.07-41.31,0-62-.09C3.33,344-1,338.25.19,330.63,1.84,319.79,3.68,309,5.38,298.15Q13.21,248.43,21,198.69q8.79-55.62,17.62-111.25,5.64-35.68,11.24-71.38C51.45,6,58,.12,68.33.06,89.65,0,111,0,132.3,0Z"/><path class="a" d="M124.22,387.08c-8.33,0-16.66,0-25,0-9.13,0-12.48-3.95-11.11-13.28,1.63-11,3.42-22,5.19-33q7.79-48.21,15.62-96.42c.69-4.27,1.32-8.54,2.11-12.78,1.14-6.14,4-8.5,10.33-8.54,13-.08,26,.27,39-.12,27.21-.81,53.68-5.28,77.91-18.5,28.66-15.63,46.4-40.23,56.89-70.58a165.45,165.45,0,0,0,6.9-26c.78-4.54,1.54-4.79,5.23-1.67a54.55,54.55,0,0,1,19.46,35.51c4.19,32.4-2.77,62.68-19.95,90.22C291.42,256.59,268.07,270.07,240,276c-13.3,2.8-26.7,3.4-40.21,3.35-14.59-.06-19.54,4.39-21.79,18.89q-5.8,37.42-11.84,74.82c-1.52,9.42-6.93,13.93-16.41,14C141.21,387.13,132.72,387.08,124.22,387.08Z"/></svg>