<svg xmlns="http://www.w3.org/2000/svg" viewBox="0 0 512 511.98"><defs><style>.cls-1{fill:#002d40;}</style></defs><g id="Layer_2" data-name="Layer 2"><g id="Layer_1-2" data-name="Layer 1"><path class="cls-1" d="M330.67,263.1V173.38l-52.75-24.22C219.44,218.74,197.58,400,56,400a56,56,0,0,0,0,112c212.64,0,370.65-122.87,419.18-210.34L438.13,263.1ZM461.76,134.73C493.92,74.89,477.18,26.46,458.62,3a8,8,0,0,0-11.25-1.21,6.67,6.67,0,0,0-.68.62l-22.9,23a8.06,8.06,0,0,0-.89,10.23c6.86,10.36,17.05,35.1-1.4,72.32a142.91,142.91,0,0,0-57.16-12c-28,0-54,8.54-76.34,22.59l74.67,34.29V231.1h89.09L506.44,288c3.26-12.62,5.56-25.63,5.56-39.31A154,154,0,0,0,461.76,134.73Z"/></g></g></svg>