<svg xmlns="http://www.w3.org/2000/svg" viewBox="0 0 984.19 711.44"><defs><style>.cls-1{fill:#00293e;}</style></defs><g id="Layer_2" data-name="Layer 2"><g id="Layer_1-2" data-name="Layer 1"><path class="cls-1" d="M875.07.06c-3.51,14-6.93,27.54-10.3,41.07-7,28.06-13.85,56.14-21,84.15-.78,3.08-.16,4.86,2,7,24.79,24.4,45.46,51.75,59.56,83.73,1.2,2.73,3,3,5.54,3,14.83-.06,29.66-.11,44.49,0,12.18.11,21.51,5.07,26.76,16.53a21.64,21.64,0,0,1,2.07,9.15q-.06,111.17-.07,222.33c0,13.16-12.48,25.37-25.65,25.42q-40.23.15-80.48,0a8,8,0,0,0-7.12,3.43c-13.88,17.8-29.33,34.08-47.58,47.49-2.73,2-3.1,4.3-3.09,7.26,0,43.3-.45,86.61.25,129.9.32,20-14.18,31.1-31.18,30.94-34-.3-68-.08-102-.09-19.81,0-31-11.18-31-31,0-24.48-.08-49,.1-73.45,0-4-.79-5.4-5.14-5.39q-104.48.21-209,0c-4.41,0-5.09,1.47-5.07,5.4.17,24.82-.46,49.65.26,74.44.52,18.2-13.75,30.16-30,30-34.66-.31-69.32-.08-104-.11-18.75,0-30.24-11.48-30.25-30.22q0-65.19.07-130.4a9,9,0,0,0-3.83-7.93c-44.47-35.36-76.15-79.69-93.29-134a246.81,246.81,0,0,1-11.88-74.58c0-4.72-1.52-5.74-5.94-5.68-19,.24-38,.11-57,.13-21.8,0-42.33-4.43-60.35-17.41C15.14,292.57,1.35,267.47.08,235.51c-1-24.68,6.69-46.38,23.07-64.59,19.62-21.82,44.49-33.17,74-33.93,7.85-.2,12,4,12,12q.09,15.24,0,30.48c0,8.21-3.92,12.1-12.26,12.36-16.81.52-29.78,7.67-37.95,22.55-13.81,25.17,4.85,58.34,33.76,59.18,24.31.71,48.65.17,73,.24,2.3,0,3.4-.36,3.71-3.16.63-5.56,4.93-10.47,3.07-16.54,4.42-3.38,2.06-9.34,5.26-13.38,3.95-5,4.25-11.66,6.87-17.41,9-19.85,19.12-39.06,32.26-56.54Q282.14,80,388.81,59.28A250.71,250.71,0,0,1,436,54.89q107,0,213.95,0a251.7,251.7,0,0,1,42.21,3.61,5.36,5.36,0,0,0,5.59-2c26.49-29.24,58.76-48.15,98-54.21C810.63,0,825.63-.1,840.63,0,851.94.15,863.24.06,875.07.06Zm-164,300.44a27.68,27.68,0,0,0,27.17,28.05c14.65.16,27-12.24,27.32-27.41.3-14.59-11.93-27.15-26.67-27.39A27.31,27.31,0,0,0,711.12,300.5Z"/></g></g></svg>