<svg xmlns="http://www.w3.org/2000/svg" viewBox="0 0 492.2 355.66"><defs><style>.a{fill:#00293e;}</style></defs><path class="a" d="M273.42,301c-16.49,0-33,.16-49.48-.11-4.34-.07-5.19,1.39-5.1,5.38.26,11,.12,22,.06,33s-5.39,16.36-16.21,16.39q-25,0-50,0c-10.66,0-15.89-4.79-16-15.37-.24-20.82-.18-41.64-.09-62.47a8.79,8.79,0,0,0-3.45-7.65c-32.24-26.6-49.42-60.77-51.06-102.59-.11-2.86-1-3.62-3.75-3.59-11.16.11-22.33.2-33.49-.07-19.19-.46-37-14.36-42.65-33-6.1-20,.78-40.73,17-52.44A50.55,50.55,0,0,1,47,68.61c5.56-.26,7.38,1.3,7.6,6.71.18,4.32.15,8.66.06,13-.14,5.83-1.46,7.08-7.46,7.61-8.7.77-15.4,4.91-18.54,13.07s-1.19,15.73,5,22.06a19.12,19.12,0,0,0,14,5.74c11.16.14,22.33-.11,33.48.18,3.63.1,4-2,4.61-4.44A133,133,0,0,1,120.4,69.39C142.08,47.05,168.28,33.1,199.32,29c23.7-3.14,47.57-1.46,71.36-1.57,21.15-.1,42.4-1.51,63.42.79,10.11,1.11,16.71-1.52,23.94-8.38C372.37,6.23,390.41.53,410.07.11c7.83-.17,15.66.11,23.49-.1,3.43-.1,3.82,1,3,4.05-4.78,18.52-9.31,37.1-14.14,55.6-.94,3.63-.41,6,2.38,8.74a123.82,123.82,0,0,1,26.25,36.8c1.5,3.18,3.38,4.32,6.87,4.17,6.32-.28,12.66-.13,19,0,9.52.14,15.36,6.56,15.25,15.81-.41,35.14-.16,70.3-.17,105.45,0,10.54-4.88,15.63-15.5,15.76q-17.75.22-35.49,0a7.68,7.68,0,0,0-6.76,3.19,122.64,122.64,0,0,1-21.18,21.11,7,7,0,0,0-3,6.32c.11,20.83.08,41.65.05,62.47,0,11-5.2,16.18-16.26,16.2q-24.74,0-49.48,0c-11.21,0-16.41-5.32-16.41-16.63s-.11-22.66.1-34c.06-3.37-1-4.17-4.24-4.14-16.82.14-33.65.07-50.48.07ZM369,164a13.48,13.48,0,0,0,13.83-13.32,13.64,13.64,0,0,0-27.27-.35A13.3,13.3,0,0,0,369,164Z"/></svg>