<svg xmlns="http://www.w3.org/2000/svg" viewBox="0 0 383.04 383.48"><defs><style>.cls-1{fill:#d9ecf2;}</style></defs><g id="Layer_2" data-name="Layer 2"><g id="Layer_1-2" data-name="Layer 1"><path class="cls-1" d="M150.47,297c0-19.82-.11-39.64.1-59.45,0-3.85-1.11-4.68-4.76-4.67q-58,.19-116,.07c-14.9,0-24.57-6.9-28.74-20.09a30,30,0,0,1-1-8.87c-.1-8-.13-16,0-24,.25-18,11.53-29.17,29.6-29.23,28.49-.08,57,0,85.47,0,10.17,0,20.34-.22,30.49.07,4,.11,4.91-1.13,4.9-5-.14-38.63-.05-77.27-.11-115.9,0-12.11,4.9-21.15,15.8-26.74a8,8,0,0,1,2.31-.92C184.05-.33,199.72-1.36,215,2.8c11,3,17.38,13.53,17.41,25.87q.12,43.21.05,86.43c0,9.82.35,19.67-.17,29.46-.29,5.49,1.66,6.37,6.61,6.34,38.32-.2,76.65-.14,115-.09,14,0,23.78,7.11,27.8,19.94a18.91,18.91,0,0,1,.89,4.87c.38,10.65.81,21.3.08,31.95a26.81,26.81,0,0,1-24.22,25,69.27,69.27,0,0,1-7.48.39c-37.49,0-75,.14-112.46-.13-5.29,0-6.15,1.55-6.13,6.37.2,37.64.12,75.27.11,112.91,0,20.4-10.75,31.22-31.12,31.12-9,0-18,.75-27-.45-14.08-1.88-23.77-12.68-23.88-26.86C150.35,336.3,150.47,316.65,150.47,297Z"/></g></g></svg>