<svg xmlns="http://www.w3.org/2000/svg" viewBox="0 0 382.88 383.46"><defs><style>.cls-1{fill:#00293e;}</style></defs><g id="Layer_2" data-name="Layer 2"><g id="Layer_1-2" data-name="Layer 1"><path class="cls-1" d="M150.47,297c0-19.81-.11-39.63.1-59.44,0-3.81-1-4.71-4.74-4.69q-58,.19-116,.07c-14.92,0-24.57-6.88-28.75-20.06-1-3.25-1-6.56-1-9.87C0,195.34,0,187.68.07,180c.24-18,11.5-29.21,29.56-29.26,31-.09,62,0,93,0,7.66,0,15.34-.24,23,.06,3.93.16,5-1,4.94-4.93-.15-38.64-.05-77.27-.11-115.9,0-12.1,4.86-21.17,15.76-26.76A10,10,0,0,1,169,2.13c15-2.42,30.22-3.35,45.06.32,11.66,2.88,18.37,13.34,18.4,26.14q.12,43.71.05,87.43c0,10,.2,20-.13,30-.13,4.07,1.22,4.87,5,4.86,38.15-.14,76.31-.09,114.46-.08,19.89,0,31,10.95,31,30.68,0,8.83.18,17.67-.29,26.47-.68,12.7-10.86,23.14-23.5,24.6a75,75,0,0,1-8.47.44c-37.66,0-75.31.09-113-.08-4.12,0-5.27,1-5.25,5.19.18,38.13.11,76.27.1,114.4,0,20-10.86,30.86-31,30.77-9,0-18,.74-27-.43-14.39-1.89-24-12.76-24-27.37C150.39,336,150.47,316.48,150.47,297Z"/></g></g></svg>