<svg xmlns="http://www.w3.org/2000/svg" viewBox="0 0 36 36"><defs><style>.a{fill:#002d40;}</style></defs><path class="a" d="M0,12H12V0H0ZM3,3H9V9H3Z"/><rect class="a" y="14" width="4" height="4"/><rect class="a" x="8" y="14" width="4" height="4"/><rect class="a" x="4" y="18" width="4" height="4"/><rect class="a" x="4.5" y="4.5" width="3" height="3"/><rect class="a" x="28.5" y="4.5" width="3" height="3"/><rect class="a" x="4.5" y="28.5" width="3" height="3"/><polygon class="a" points="22 8 18 8 18 4 14 4 14 12 22 12 22 8"/><rect class="a" x="18" width="4" height="4"/><polygon class="a" points="24 30 28 30 28 36 36 36 36 32 32 32 32 26 24 26 24 30"/><rect class="a" x="32" y="18" width="4" height="8"/><path class="a" d="M24,0V12H36V0Zm9,9H27V3h6Z"/><rect class="a" x="28" y="14" width="4" height="4"/><rect class="a" x="24" y="18" width="4" height="4"/><rect class="a" x="16" y="24" width="4" height="8"/><path class="a" d="M0,36H12V24H0Zm3-9H9v6H3Z"/><rect class="a" x="20" y="32" width="4" height="4"/><polygon class="a" points="16.64 21.23 16.64 15.22 13.83 15.22 13.83 16.54 14.95 16.54 14.95 21.23 16.64 21.23"/><path class="a" d="M19.5,20a3.31,3.31,0,0,1-.87-.12,2.87,2.87,0,0,1-.79-.37l-.62,1.27a3.54,3.54,0,0,0,1.08.44,5.29,5.29,0,0,0,1.25.16A3.52,3.52,0,0,0,21,21.07a2,2,0,0,0,.87-.74,1.81,1.81,0,0,0,.29-1,1.64,1.64,0,0,0-.4-1.11,2,2,0,0,0-1.15-.62l1.25-1.33V15.22H17.53v1.32H19.9l-1.08,1.15v1.07h.71c.62,0,.92.2.92.59a.51.51,0,0,1-.25.46A1.3,1.3,0,0,1,19.5,20Z"/></svg>