<svg xmlns="http://www.w3.org/2000/svg" viewBox="0 0 383.52 383.17"><defs><style>.a{fill:#002d40;}</style></defs><path class="a" d="M82.62,164.24c-25.82,0-51.64-.08-77.45.08-3.75,0-4.83-1-4.75-4.77.4-18.63-.29-37.27-.07-55.92C.73,71,.34,38.38,0,5.75,0,1,1.39,0,5.86,0q76.46.22,152.9,0c4.86,0,6,1.3,6,6.08q-.28,76.19,0,152.39c0,4.4-.9,5.9-5.66,5.86-25.48-.26-51-.13-76.45-.13ZM109.76,82h0c0-7.81-.11-15.63,0-23.44.06-2.91-.64-4.14-3.83-4.11-15.8.13-31.6.1-47.4,0-2.76,0-3.78.76-3.76,3.66q.18,23.7,0,47.39c0,3.17,1.16,3.9,4.08,3.88q23.44-.18,46.9,0c3,0,4.09-.78,4-3.91C109.63,97.68,109.76,89.86,109.76,82Z"/><path class="a" d="M383.05,82.7c0,10.48-.05,21,0,31.44.09,15.15.13,30.3.45,45.45.09,3.81-1.09,4.7-4.79,4.7q-77.45-.16-154.9,0c-3.89,0-5-1-5-5Q219,82.16,218.82,5c0-4.1,1.34-4.9,5.11-4.89q76.95.15,153.9,0c4.13,0,5.35,1.08,5.31,5.26-.19,24-.09,47.94-.09,71.92Zm-54.43-.28h0c0-8-.12-16,.06-24,.08-3.08-.92-4-4-4q-23.48.18-47,0c-2.93,0-4.09.7-4.07,3.88q.21,23.72,0,47.44c0,3.17,1,3.93,4,3.91,15.65-.12,31.3-.15,46.95,0,3.46,0,4.13-1.27,4.05-4.36C328.5,97.74,328.62,90.07,328.62,82.42Z"/><path class="a" d="M164.63,300.69c0,25.83-.08,51.65.1,77.48,0,3.94-1,5-5,5q-77-.18-154,0c-4,0-5.4-.9-5.39-5.19Q.61,301,.4,224c0-4,1.19-5,5.08-5q77,.16,154,0c4.1,0,5.35,1,5.32,5.23-.2,25.49-.1,51-.1,76.47Zm-109.71,0h0c0,8,.09,16,0,23.95,0,2.79.84,3.77,3.69,3.74q24-.17,47.9,0c2.71,0,3.36-1,3.35-3.53q-.1-24,0-47.9c0-2.6-.88-3.47-3.45-3.46q-24,.14-47.9,0c-2.93,0-3.67,1.05-3.62,3.79C55,285.06,54.92,292.88,54.92,300.69Z"/><path class="a" d="M218.91,300.65c0-25.33.14-50.65-.12-76,0-4.78,1.48-5.72,5.89-5.68q35.73.3,71.47,0c4,0,5.17,1.2,5,5.08-.3,6.15,0,12.33-.13,18.49-.07,2.84.92,3.72,3.75,3.7q23.75-.18,47.48,0c2.87,0,3.74-.94,3.68-3.73-.16-6.66,0-13.33-.09-20-.05-2.6.87-3.53,3.47-3.48q10,.18,20,0c2.75-.06,3.81.81,3.8,3.68q-.1,51,0,102c0,2.9-1.09,3.67-3.82,3.66q-37-.1-74,0c-3.17,0-4-1.19-3.89-4.11.16-6.49-.05-13,.09-19.49.06-2.78-.84-3.83-3.72-3.76-6.49.17-13,.3-19.49,0-3.93-.21-4.64,1.27-4.62,4.85.15,24,0,48,.16,72,0,4-.83,5.43-5.14,5.36q-22.49-.39-45,0c-4.07.07-4.93-1.23-4.91-5.05.16-25.83.08-51.65.08-77.47Z"/></svg>