<svg xmlns="http://www.w3.org/2000/svg" viewBox="0 0 437.78 436.98"><defs><style>.a{fill:#00293e;}</style></defs><path class="a" d="M219.38,245.83H420.77c12.9,0,18.1,5.7,16.37,18.38-8.35,61.16-41.05,104.72-96.6,130.7-8.94,4.18-12.12,8.33-12.29,17.74-.25,13.66-12.39,24.26-26.2,24.27q-82.2.09-164.41,0c-15.46,0-27.28-10.79-27.32-26.34,0-8-2.74-11.13-10-14.41-55.08-24.93-88.61-67-98.61-127.1-.36-2.13-.35-4.31-.62-6.46-1.32-10.73,4-16.79,14.89-16.8q88.2,0,176.4,0Z"/><path class="a" d="M250.31,218.13c-14.28,0-28.25,0-42.22,0-1.93,0-2.71-.8-2.6-2.69.07-1.16,0-2.33,0-3.49V92c0-8.81-1.75-10.56-10.48-10.59-2.67,0-5.34-.06-8,0-6.39.23-8.64,2.51-8.65,9q0,36.74,0,73.47c0,15.81,0,31.62,0,47.81-2.18-.5-3.13-2.13-4.32-3.32q-40.44-40.5-80.82-81c-6.43-6.45-8.89-6.45-15.27-.09-1.77,1.76-3.56,3.52-5.3,5.31-4.94,5-5,8.18-.09,13.13,7.51,7.56,15.1,15.06,22.65,22.58q22.68,22.57,45.35,45.13c1.25,1.25,2.44,2.57,3.83,4-1.66,1.07-3.17.67-4.57.67-19.33,0-38.66.25-58,0C49.23,217.6,24.77,202.37,9.91,174c-15-28.72-12.78-57.69,5.53-84.69A79.79,79.79,0,0,1,100,56.64c3.26.78,4.55,0,6.06-2.93C123.59,19.83,151.13.84,189.64,0,230.3-.83,259.54,18.19,278.1,54c1.85,3.55,3.71,3.14,6.64,2.44,27.43-6.62,58.67,3.54,77.23,25.31-36.61-1-66.93,12-90.1,40C248.53,149.78,242,182.2,250.31,218.13Z"/><path class="a" d="M274.22,191.33c.7-49.4,41.25-86.54,89.26-82.08a81.27,81.27,0,0,1,74.07,75.21c.7,10.77-.12,21.23-3.51,31.5-.79,2.39-1.71,3.73-4.5,2.87-3.06-1-6.27-.68-9.43-.68-45.31,0-90.61-.06-135.92.11-4.08,0-5.94-1.14-6.9-5.08C275.42,205.54,273.86,197.92,274.22,191.33Z"/></svg>