<svg xmlns="http://www.w3.org/2000/svg" viewBox="0 0 437.51 437.13"><defs><style>.cls-1{fill:#002d40;}</style></defs><g id="Layer_2" data-name="Layer 2"><g id="Layer_1-2" data-name="Layer 1"><path class="cls-1" d="M218.63,245.9h202c12.24,0,17.53,5.72,16.07,17.79q-7.94,65.74-58.89,108.14c-13.3,11-27.84,20.06-44.15,25.89-4.34,1.56-6,3.63-5.61,8.27.94,12.37-3.47,22.18-14.85,28.14a27.28,27.28,0,0,1-13,2.9c-53.49-.07-107-.16-160.47.09-7.43,0-13.86-.79-19.92-5.66-6.43-5.17-10.35-11.65-9.86-19.44.57-9-2.85-12.67-11.11-16.29C55,376.52,24.71,344.13,8.33,299c-4.63-12.76-7-26-8.21-39.45-.61-6.63,5.22-12.94,12.05-13.55,2-.17,4-.1,6-.1Z"/><path class="cls-1" d="M360.85,82a108.65,108.65,0,0,0-35.28,3.83c-39.49,10.55-72.32,47.78-78,88.23a112.28,112.28,0,0,0,1.55,40.59c.6,2.67.32,3.55-2.57,3.52-12.66-.11-25.32-.19-38,0-4.51.07-3.62-2.79-3.62-5.31q0-60,0-119.93c0-9.94-1.68-11.63-11.53-11.63-15.31,0-15.6.29-15.6,15.64V212.31c-1.93-1.76-3.26-2.88-4.48-4.1q-40.42-40.5-80.83-81c-6.09-6.1-8.89-6.1-15,0-1.89,1.88-3.8,3.74-5.65,5.66-4.55,4.72-4.58,8.18.1,12.85q27,27,54.14,54c5.85,5.83,11.68,11.68,18.26,18.27-2.44.11-3.85.22-5.26.22-19.83,0-39.66.16-59.48,0-40.15-.42-74.36-32.35-79-72.16-5-42.52,24.17-82.13,66.38-90.36a72.76,72.76,0,0,1,32.13,1.06c3.38.86,5,.13,6.54-3.08,6.62-14.12,16.54-25.49,28.83-35.16C151.07,5.31,170-.08,190.72,0c39.86.15,68.43,18.83,86.74,53.75,1.76,3.34,3.42,3.43,6.61,2.77,29.39-6.05,54.52,2.07,75.66,23.13C360.27,80.18,361.11,80.63,360.85,82Z"/><path class="cls-1" d="M353.36,218.17c-23.31,0-46.62-.11-69.93.09-3.91,0-5.47-1.35-6.6-4.89-9-28.3,1.05-63,23.46-82.9,18.24-16.21,39.45-23.48,63.41-21.12,36.24,3.58,64.43,29.58,72,65.5a76.09,76.09,0,0,1-2.3,41.29c-.64,1.82-1.14,3.4-3.7,2.84-7.41-1.62-14.93-.72-22.4-.78C389.32,218.08,371.34,218.17,353.36,218.17Z"/></g></g></svg>