<svg xmlns="http://www.w3.org/2000/svg" viewBox="0 0 437.62 438.24"><defs><style>.cls-1{fill:#00293e;}</style></defs><g id="Layer_2" data-name="Layer 2"><g id="Layer_1-2" data-name="Layer 1"><path class="cls-1" d="M318,287.23a80,80,0,0,0,8.19,0c10.34-1.18,18.11,3.05,25.25,10.3,25.82,26.22,52,52.12,78,78.12,6,6,9.55,12.76,7.66,21.51a19.33,19.33,0,0,1-5.35,10c-7.93,7.84-15.71,15.85-23.78,23.56-10.6,10.14-19.88,10.16-30.23-.12q-42-41.74-83.79-83.69a20,20,0,0,1-6.33-15.19c.1-4.33,0-8.66,0-13.81-42.83,31.59-90.1,44.09-142.29,34.39S52.92,314.34,25.6,269.16C-19.46,194.65-2.21,103.87,55.22,49c66.89-63.89,168.8-63.7,235.19-8.84,37,30.55,58.81,69.89,64.14,117.46S347.45,248.26,318,287.23ZM68.74,177.56A109.23,109.23,0,0,0,177.65,287.17c60.33.25,109.53-49,109.54-109.55A109.06,109.06,0,0,0,178,68.39C116.08,68.38,68.24,119,68.74,177.56Z"/></g></g></svg>