<svg xmlns="http://www.w3.org/2000/svg" viewBox="0 0 457.35 437.2"><defs><style>.cls-1{fill:#00293e;}</style></defs><g id="Layer_2" data-name="Layer 2"><g id="Layer_1-2" data-name="Layer 1"><path class="cls-1" d="M351,437c-3.81.28-7.73-1.18-11.77-3.46-9.82-5.53-20-10.38-30-15.63Q280,402.54,250.88,387c-6.47-3.43-13-6.75-19.4-10.28a5.09,5.09,0,0,0-5.51,0q-44.83,23.58-89.74,47Q126.56,428.77,117,434c-13,7.06-34.28,3.06-39.89-17.56-1.92-7.05.59-14.52,1.84-21.72q9.59-55.47,19.37-110.89c.58-3.26-1.29-4.55-3-6.23q-43-41.77-86.06-83.51c-11.54-11.2-12.33-28-1.85-39.45A27.16,27.16,0,0,1,24,146.25q59.25-8.69,118.55-17.09c4.05-.58,6.57-1.94,8.55-6C167.38,89.44,184,55.9,200.56,22.33c2.26-4.58,3.87-9.47,7.11-13.57,9.55-12.12,36.15-13.09,45.42,6.2,7.84,16.34,16,32.51,24,48.76,10,20.29,20.05,40.56,29.92,60.92a7,7,0,0,0,6,4.33q39.54,5.57,79.07,11.24c13.83,2,27.69,3.79,41.47,6.06,10.84,1.78,18.61,7.71,22.18,18.44s1.28,20.33-6.57,28q-41.92,41.08-84.41,81.59C359.79,279,358.8,283.47,360,290q10.33,57.36,19.86,114.86C382.88,423.13,370.36,437.21,351,437Z"/></g></g></svg>