<svg xmlns="http://www.w3.org/2000/svg" viewBox="0 0 246.03 436.88"><defs><style>.cls-1{fill:#00293e;}</style></defs><g id="Layer_2" data-name="Layer 2"><g id="Layer_1-2" data-name="Layer 1"><path class="cls-1" d="M123,0q47,0,94,0c10.06,0,14.18,4.22,15.05,14.25,2.44,28.13,5.16,56.23,7.67,84.35,1.52,17.05,2.78,34.11,4.3,51.15.92,10.27,2.44,20.49,1.85,30.83-2.05,35.47-16.06,65.09-43.07,88.49a118.22,118.22,0,0,1-48.09,25.43c-3.43.9-4.79,2.31-4.77,6.1q.25,45.22,0,90.45c0,4,1.25,4.95,5.1,5,11.47.16,23-.78,34.43.62,15.48,1.88,28.06,14.62,29.28,32.87a6.9,6.9,0,0,1-6.69,7.23c-3.33.15-6.67,0-10,0h-165c-9.21,0-11.65-2.78-10-11.82,2.89-15.62,16.11-27.06,30-28.36,11.16-1,22.29-.66,33.43-.58,4.62,0,5.45-1.49,5.42-5.7q-.25-44.47,0-88.95c0-4.41-1.53-6-5.49-7.11-34.78-9.72-60.46-31-77.09-62.74C2.3,210.32-1.75,187.46.68,163.41,2.82,142.26,4.2,121,6.07,99.84c1.79-20.35,3.78-40.68,5.67-61C12.5,30.55,13.32,22.28,13.9,14,14.55,4.7,19.26,0,28.55,0Q75.79,0,123,0Zm0,109v0c23.65,0,47.3-.11,71,.09,4.23,0,5.48-1.13,5.09-5.31-1.88-20-3.56-40-5.29-60-.24-2.71-1.65-3.61-4.3-3.57-7.83.13-15.66.07-23.49.07-36,0-71.95.07-107.92-.09-4.3,0-6.15,1.27-6,5.59a56.17,56.17,0,0,1-.43,7c-1.54,17-3,34.06-4.7,51.07-.42,4.21.94,5.32,5.12,5.29C75.71,108.92,99.36,109,123,109Z"/></g></g></svg>